<svg width="56" height="45" viewBox="0 0 56 45" fill="none" xmlns="http://www.w3.org/2000/svg">
<path d="M53.4244 32.8096C53.6519 31.5703 53.6519 30.3047 53.4244 29.0654L55.6821 27.7559C55.9446 27.6064 56.0584 27.2988 55.9709 27.0088C55.3846 25.1104 54.3782 23.3877 53.0656 21.9639C52.8643 21.7441 52.5405 21.6914 52.278 21.8408L50.0203 23.1504C49.0664 22.333 47.9726 21.7002 46.7912 21.2783V18.6592C46.7912 18.3604 46.5812 18.0967 46.2924 18.0352C44.3409 17.5957 42.3545 17.6133 40.4993 18.0352C40.2105 18.0967 40.0005 18.3604 40.0005 18.6592V21.2783C38.8191 21.7002 37.7252 22.333 36.7714 23.1504L34.5136 21.8408C34.2599 21.6914 33.9273 21.7441 33.7261 21.9639C32.4134 23.3877 31.4071 25.1104 30.8208 27.0088C30.7332 27.2988 30.8558 27.6064 31.1095 27.7559L33.3673 29.0654C33.1397 30.3047 33.1397 31.5703 33.3673 32.8096L31.1095 34.1191C30.847 34.2686 30.7332 34.5762 30.8208 34.8662C31.4071 36.7646 32.4134 38.4785 33.7261 39.9111C33.9273 40.1309 34.2511 40.1836 34.5136 40.0342L36.7714 38.7246C37.7252 39.542 38.8191 40.1748 40.0005 40.5967V43.2158C40.0005 43.5146 40.2105 43.7783 40.4993 43.8398C42.4507 44.2793 44.4372 44.2617 46.2924 43.8398C46.5812 43.7783 46.7912 43.5146 46.7912 43.2158V40.5967C47.9726 40.1748 49.0664 39.542 50.0203 38.7246L52.278 40.0342C52.5318 40.1836 52.8643 40.1309 53.0656 39.9111C54.3782 38.4873 55.3846 36.7646 55.9709 34.8662C56.0584 34.5762 55.9359 34.2686 55.6821 34.1191L53.4244 32.8096ZM43.4046 35.2002C41.0593 35.2002 39.1604 33.2842 39.1604 30.9375C39.1604 28.5908 41.0681 26.6748 43.4046 26.6748C45.7411 26.6748 47.6488 28.5908 47.6488 30.9375C47.6488 33.2842 45.7498 35.2002 43.4046 35.2002ZM19.6021 22.5C25.789 22.5 30.8032 17.4639 30.8032 11.25C30.8032 5.03613 25.789 0 19.6021 0C13.4152 0 8.40089 5.03613 8.40089 11.25C8.40089 17.4639 13.4152 22.5 19.6021 22.5ZM37.2089 42.4072C37.0077 42.3018 36.8064 42.1787 36.6139 42.0645L35.9225 42.4688C35.3975 42.7676 34.8024 42.9346 34.2074 42.9346C33.2535 42.9346 32.3347 42.5303 31.6783 41.8271C30.0769 40.0869 28.8518 37.9688 28.1605 35.71C27.6792 34.1543 28.3267 32.5107 29.7269 31.6934L30.4182 31.2891C30.4095 31.0605 30.4095 30.832 30.4182 30.6035L29.7269 30.1992C28.3267 29.3906 27.6792 27.7383 28.1605 26.1826C28.2392 25.9277 28.353 25.6729 28.4405 25.418C28.108 25.3916 27.7842 25.3125 27.4429 25.3125H25.9815C24.0388 26.209 21.8773 26.7188 19.6021 26.7188C17.3268 26.7188 15.1741 26.209 13.2226 25.3125H11.7612C5.26806 25.3125 0 30.6035 0 37.125V40.7812C0 43.1104 1.88145 45 4.20044 45H35.0037C35.8875 45 36.7101 44.7188 37.3839 44.2529C37.2789 43.9189 37.2089 43.5762 37.2089 43.2158V42.4072Z" fill="#14A6A6"/>
</svg>
