<svg width="47" height="45" viewBox="0 0 47 45" fill="none" xmlns="http://www.w3.org/2000/svg">
<path d="M11.6667 21C10.2878 21 8.92241 20.7284 7.64849 20.2007C6.37457 19.6731 5.21706 18.8996 4.24205 17.9246C3.26703 16.9496 2.49361 15.7921 1.96593 14.5182C1.43826 13.2443 1.16667 11.8789 1.16667 10.5C1.16667 9.12112 1.43826 7.75574 1.96593 6.48182C2.49361 5.20791 3.26703 4.05039 4.24205 3.07538C5.21706 2.10036 6.37457 1.32694 7.64849 0.799265C8.92241 0.271591 10.2878 -2.05469e-08 11.6667 0C14.4514 4.14964e-08 17.1222 1.10625 19.0913 3.07538C21.0604 5.04451 22.1667 7.71523 22.1667 10.5C22.1667 13.2848 21.0604 15.9555 19.0913 17.9246C17.1222 19.8938 14.4514 21 11.6667 21ZM36.1667 30.3333C33.6913 30.3333 31.3173 29.35 29.567 27.5997C27.8167 25.8493 26.8333 23.4754 26.8333 21C26.8333 18.5246 27.8167 16.1507 29.567 14.4003C31.3173 12.65 33.6913 11.6667 36.1667 11.6667C38.642 11.6667 41.016 12.65 42.7663 14.4003C44.5167 16.1507 45.5 18.5246 45.5 21C45.5 23.4754 44.5167 25.8493 42.7663 27.5997C41.016 29.35 38.642 30.3333 36.1667 30.3333ZM36.1667 32.6667C38.9514 32.6667 41.6222 33.7729 43.5913 35.742C45.5604 37.7112 46.6667 40.3819 46.6667 43.1667V44.3333H25.6667V43.1667C25.6667 40.3819 26.7729 37.7112 28.742 35.742C30.7112 33.7729 33.3819 32.6667 36.1667 32.6667ZM11.6667 23.3333C13.1988 23.3333 14.7158 23.6351 16.1313 24.2214C17.5468 24.8077 18.8329 25.6671 19.9162 26.7504C20.9996 27.8338 21.859 29.1199 22.4453 30.5354C23.0316 31.9508 23.3333 33.4679 23.3333 35V44.3333H0V35C0 31.9058 1.22916 28.9383 3.41709 26.7504C5.60501 24.5625 8.57247 23.3333 11.6667 23.3333Z" fill="#14A6A6"/>
</svg>
