<svg width="53" height="60" viewBox="0 0 53 60" fill="none" xmlns="http://www.w3.org/2000/svg">
<path d="M37.5464 37.5006L26.5607 48.5753L15.5751 37.5006C7.34163 37.8605 0.766357 44.6516 0.766357 53.033V54.1475C0.766357 57.2237 3.24216 59.7196 6.29373 59.7196H46.8278C49.8793 59.7196 52.3551 57.2237 52.3551 54.1475V53.033C52.3551 44.6516 45.7799 37.8605 37.5464 37.5006ZM2.33245 9.54698L3.06943 9.72111V16.5006C2.26335 16.9881 1.68759 17.8356 1.68759 18.8571C1.68759 19.8323 2.21729 20.6449 2.96579 21.144L1.16939 28.3762C0.973634 29.1772 1.41122 30.0014 2.04456 30.0014H6.85798C7.49132 30.0014 7.92891 29.1772 7.73315 28.3762L5.93675 21.144C6.68525 20.6449 7.21496 19.8323 7.21496 18.8571C7.21496 17.8356 6.63919 16.9881 5.83311 16.5006V10.3944L13.4332 12.2402C12.4429 14.2369 11.8211 16.4657 11.8211 18.8571C11.8211 27.0644 18.4194 33.7162 26.5607 33.7162C34.7021 33.7162 41.3004 27.0644 41.3004 18.8571C41.3004 16.4657 40.6901 14.2369 39.6883 12.2402L50.7775 9.54698C52.8733 9.0362 52.8733 6.40103 50.7775 5.89025L28.8523 0.550266C27.3553 0.190398 25.7777 0.190398 24.2807 0.550266L2.33245 5.87864C0.248167 6.38942 0.248167 9.0362 2.33245 9.54698Z" fill="url(#paint0_linear_31_51)"/>
<defs>
<linearGradient id="paint0_linear_31_51" x1="26.5607" y1="0.280365" x2="26.5607" y2="59.7196" gradientUnits="userSpaceOnUse">
<stop offset="0.155577" stop-color="#1656F0"/>
<stop offset="0.59876" stop-color="#14A6A6"/>
</linearGradient>
</defs>
</svg>
