<svg width="43" height="50" viewBox="0 0 43 50" fill="none" xmlns="http://www.w3.org/2000/svg">
<path d="M30.6567 31.3095L21.5 40.6255L12.3433 31.3095C5.48058 31.6122 0 37.3248 0 44.3753V45.3127C0 47.9005 2.06362 50 4.60714 50H38.3929C40.9364 50 43 47.9005 43 45.3127V44.3753C43 37.3248 37.5194 31.6122 30.6567 31.3095ZM1.30536 7.79503L1.91964 7.94151V13.6444C1.24777 14.0545 0.767857 14.7673 0.767857 15.6267C0.767857 16.4469 1.20938 17.1305 1.83326 17.5504L0.335938 23.6341C0.172768 24.3079 0.5375 25.0012 1.0654 25.0012H5.07746C5.60536 25.0012 5.97009 24.3079 5.80692 23.6341L4.3096 17.5504C4.93348 17.1305 5.375 16.4469 5.375 15.6267C5.375 14.7673 4.89509 14.0545 4.22321 13.6444V8.50788L10.558 10.0605C9.73259 11.7401 9.21429 13.6151 9.21429 15.6267C9.21429 22.5306 14.7141 28.1261 21.5 28.1261C28.2859 28.1261 33.7857 22.5306 33.7857 15.6267C33.7857 13.6151 33.277 11.7401 32.442 10.0605L41.685 7.79503C43.4319 7.36536 43.4319 5.14867 41.685 4.71901L23.41 0.22704C22.1623 -0.0756799 20.8473 -0.0756799 19.5996 0.22704L1.30536 4.70924C-0.43192 5.13891 -0.43192 7.36536 1.30536 7.79503Z" fill="#14A6A6"/>
</svg>
