<svg width="53" height="42" viewBox="0 0 53 42" fill="none" xmlns="http://www.w3.org/2000/svg">
<path d="M17.2251 28.875C17.0272 28.875 16.8293 28.9037 16.6404 28.9644C15.5672 29.3098 14.4385 29.5312 13.2501 29.5312C12.0617 29.5312 10.933 29.3098 9.85894 28.9644C9.67013 28.9037 9.47303 28.875 9.27511 28.875C4.13578 28.875 -0.0271943 33.0159 0.000133782 38.1134C0.0117275 40.2675 1.79964 42 3.97512 42H22.5251C24.7006 42 26.4885 40.2675 26.5001 38.1134C26.5274 33.0159 22.3644 28.875 17.2251 28.875ZM13.2501 26.25C17.6408 26.25 21.2001 22.7243 21.2001 18.375C21.2001 14.0257 17.6408 10.5 13.2501 10.5C8.85939 10.5 5.30012 14.0257 5.30012 18.375C5.30012 22.7243 8.85939 26.25 13.2501 26.25ZM49.025 0H17.2251C15.0331 0 13.2501 1.8252 13.2501 4.06793V7.875C15.1896 7.875 16.9849 8.43117 18.5501 9.33516V5.25H47.7V28.875H42.4V23.625H31.8001V28.875H25.4864C27.0682 30.2441 28.2292 32.0521 28.7733 34.125H49.025C51.217 34.125 53 32.2998 53 30.0571V4.06793C53 1.8252 51.217 0 49.025 0Z" fill="#14A6A6"/>
</svg>
